# xmcd
#
# Track frame offsets:
#	150
#	19348
#	37882
#	55087
#	73753
#	95527
#	115965
#	136800
#	160117
#	182900
#	203010
#	223255
#	245750
#	264369
#
# Disc length: 3822 seconds
#
# Revision: 0
# Processed by: cddbd v1.4PL0 Copyright (c) Steve Scherf et al.
# Submitted via: EasyCDDAExtractor 4.5.0.2
#
DISCID=ca0eec0e
DTITLE=ANTI-PALU - inclus accouchement
DYEAR=1900
DGENRE=Tribal
TTITLE0=on est ensemble
TTITLE1=professeur
TTITLE2=inconscient
TTITLE3=commando
TTITLE4=cherche toi
TTITLE5=sida
TTITLE6=nina
TTITLE7=union
TTITLE8=accouchement difficile
TTITLE9=on va parler
TTITLE10=le guitariste
TTITLE11=mon amour
TTITLE12=etudiant
TTITLE13=afrique
EXTD=
EXTT0=
EXTT1=
EXTT2=
EXTT3=
EXTT4=
EXTT5=
EXTT6=
EXTT7=
EXTT8=
EXTT9=
EXTT10=
EXTT11=
EXTT12=
EXTT13=
PLAYORDER=
